<svg data-v-423bf9ae="" xmlns="http://www.w3.org/2000/svg" viewBox="0 0 709 112" class="iconLeft"><!----><!----><!----><g data-v-423bf9ae="" id="37357015-6112-4251-8c36-3041daf4e0f3" fill="#240A14" transform="matrix(4.4510387268192755,0,0,4.4510387268192755,130.84405063440386,8.463573582861834)"><path d="M3.15 14.35L5.25 14.35L5.25 10.89L8.34 4.58L6.09 4.58L5.05 6.85L4.30 8.76L4.19 8.76L3.43 6.85L2.39 4.58L0.06 4.58L3.15 10.89ZM9.35 12.74L9.35 14.35L15.85 14.35L15.85 12.74L13.64 12.74L13.64 3.99L9.35 3.99L9.35 5.60L11.56 5.60L11.56 12.74ZM21.45 6.20C22.37 6.20 22.69 5.77 22.69 5.22L22.69 4.82C22.69 4.26 22.37 3.84 21.45 3.84C20.52 3.84 20.20 4.26 20.20 4.82L20.20 5.22C20.20 5.77 20.52 6.20 21.45 6.20ZM18.12 12.74L18.12 14.35L24.61 14.35L24.61 12.74L22.48 12.74L22.48 7.13L18.12 7.13L18.12 8.74L20.41 8.74L20.41 12.74ZM30.70 13.03L30.70 14.35L32.77 14.35L32.77 3.99L30.70 3.99L30.70 8.44L30.60 8.44C30.24 7.57 29.62 6.96 28.46 6.96C26.87 6.96 25.75 8.12 25.75 10.74C25.75 13.36 26.87 14.52 28.46 14.52C29.62 14.52 30.24 13.90 30.60 13.03ZM29.36 12.91C28.43 12.91 27.90 12.31 27.90 11.30L27.90 10.18C27.90 9.17 28.43 8.57 29.36 8.57C30.09 8.57 30.70 8.92 30.70 9.67L30.70 11.80C30.70 12.56 30.09 12.91 29.36 12.91ZM38.00 14.52C39.55 14.52 40.53 13.93 41.09 13.24L39.97 12.03C39.52 12.56 38.92 12.92 38.07 12.92C36.96 12.92 36.36 12.29 36.36 11.37L36.36 11.24L41.30 11.24L41.30 10.63C41.30 8.37 39.97 6.96 37.81 6.96C35.64 6.96 34.30 8.40 34.30 10.77C34.30 13.08 35.57 14.52 38.00 14.52ZM37.83 8.44C38.72 8.44 39.27 9.03 39.27 9.97L39.27 10.08L36.36 10.08L36.36 9.97C36.36 9.04 36.93 8.44 37.83 8.44ZM59.35 7.94L59.35 14.35L61.35 14.35L61.35 4.58L59.08 4.58L56.71 9.16L56.69 9.16L54.29 4.58L52.04 4.58L52.04 14.35L54.04 14.35L54.04 7.84L54.08 7.84L54.82 9.38L56.69 12.82L58.59 9.37L59.30 7.94ZM67.40 14.52C68.95 14.52 69.93 13.93 70.49 13.24L69.37 12.03C68.92 12.56 68.32 12.92 67.47 12.92C66.36 12.92 65.76 12.29 65.76 11.37L65.76 11.24L70.70 11.24L70.70 10.63C70.70 8.37 69.37 6.96 67.21 6.96C65.04 6.96 63.70 8.40 63.70 10.77C63.70 13.08 64.97 14.52 67.40 14.52ZM67.23 8.44C68.12 8.44 68.67 9.03 68.67 9.97L68.67 10.08L65.76 10.08L65.76 9.97C65.76 9.04 66.33 8.44 67.23 8.44ZM75.52 14.52C77.66 14.52 78.88 13.57 78.88 12.07C78.88 10.70 77.85 10.15 76.55 9.95L75.40 9.77C74.84 9.69 74.51 9.56 74.51 9.14C74.51 8.67 74.93 8.41 75.71 8.41C76.65 8.41 77.34 8.78 77.76 9.24L78.79 8.06C78.19 7.36 77.20 6.96 75.78 6.96C73.70 6.96 72.48 7.87 72.48 9.38C72.48 10.75 73.50 11.30 74.79 11.49L75.95 11.68C76.51 11.76 76.85 11.89 76.85 12.29C76.85 12.81 76.34 13.06 75.53 13.06C74.56 13.06 73.81 12.70 73.25 12.08L72.09 13.16C72.67 14 73.92 14.52 75.52 14.52ZM83.92 14.52C86.06 14.52 87.28 13.57 87.28 12.07C87.28 10.70 86.25 10.15 84.95 9.95L83.80 9.77C83.24 9.69 82.91 9.56 82.91 9.14C82.91 8.67 83.33 8.41 84.11 8.41C85.05 8.41 85.74 8.78 86.16 9.24L87.19 8.06C86.59 7.36 85.60 6.96 84.18 6.96C82.10 6.96 80.88 7.87 80.88 9.38C80.88 10.75 81.90 11.30 83.19 11.49L84.35 11.68C84.91 11.76 85.25 11.89 85.25 12.29C85.25 12.81 84.74 13.06 83.93 13.06C82.96 13.06 82.21 12.70 81.65 12.08L80.49 13.16C81.07 14 82.32 14.52 83.92 14.52ZM92.60 14.52C94.15 14.52 95.13 13.93 95.69 13.24L94.57 12.03C94.12 12.56 93.52 12.92 92.67 12.92C91.56 12.92 90.96 12.29 90.96 11.37L90.96 11.24L95.90 11.24L95.90 10.63C95.90 8.37 94.57 6.96 92.41 6.96C90.24 6.96 88.90 8.40 88.90 10.77C88.90 13.08 90.17 14.52 92.60 14.52ZM92.43 8.44C93.32 8.44 93.87 9.03 93.87 9.97L93.87 10.08L90.96 10.08L90.96 9.97C90.96 9.04 91.53 8.44 92.43 8.44ZM97.51 14.35L99.58 14.35L99.58 9.60C99.58 8.90 100.21 8.55 100.86 8.55C101.67 8.55 102.07 9.04 102.07 9.95L102.07 14.35L104.15 14.35L104.15 9.67C104.15 7.92 103.18 6.96 101.79 6.96C100.63 6.96 99.99 7.63 99.67 8.44L99.58 8.44L99.58 7.13L97.51 7.13ZM112.57 13.92L112.57 7.13L110.50 7.13L110.50 8.44L110.40 8.44C110.04 7.57 109.42 6.96 108.26 6.96C106.67 6.96 105.55 8.13 105.55 10.56C105.55 12.98 106.67 14.15 108.26 14.15C109.42 14.15 110.04 13.52 110.40 12.66L110.50 12.66L110.50 14.10C110.50 15.09 109.98 15.69 108.86 15.69C108.15 15.69 107.56 15.44 107.09 14.95L105.98 16.27C106.55 16.87 107.48 17.32 108.92 17.32C111.34 17.32 112.57 16.06 112.57 13.92ZM109.16 12.54C108.23 12.54 107.70 11.93 107.70 10.92L107.70 10.18C107.70 9.17 108.23 8.57 109.16 8.57C109.89 8.57 110.50 8.92 110.50 9.67L110.50 11.44C110.50 12.19 109.89 12.54 109.16 12.54ZM117.80 14.52C119.35 14.52 120.33 13.93 120.89 13.24L119.77 12.03C119.32 12.56 118.72 12.92 117.87 12.92C116.76 12.92 116.16 12.29 116.16 11.37L116.16 11.24L121.10 11.24L121.10 10.63C121.10 8.37 119.77 6.96 117.61 6.96C115.44 6.96 114.10 8.40 114.10 10.77C114.10 13.08 115.37 14.52 117.80 14.52ZM117.63 8.44C118.52 8.44 119.07 9.03 119.07 9.97L119.07 10.08L116.16 10.08L116.16 9.97C116.16 9.04 116.73 8.44 117.63 8.44ZM122.84 12.74L122.84 14.35L128.95 14.35L128.95 12.74L126.57 12.74L126.57 10.25C126.57 9.44 127.20 9.03 128.13 9.03L129.67 9.03L129.67 7.13L128.98 7.13C127.67 7.13 126.98 8.05 126.67 9.00L126.57 9.00L126.57 7.13L122.84 7.13L122.84 8.74L124.50 8.74L124.50 12.74Z"></path></g><defs data-v-423bf9ae=""><linearGradient data-v-423bf9ae="" gradientTransform="rotate(25)" id="5176cab1-91e0-4e0a-910c-f61e8a5f3d0d" x1="0%" y1="0%" x2="100%" y2="0%"><stop data-v-423bf9ae="" offset="0%" style="stop-color: rgb(48, 9, 42); stop-opacity: 1;"></stop><stop data-v-423bf9ae="" offset="100%" style="stop-color: rgb(203, 60, 97); stop-opacity: 1;"></stop></linearGradient></defs><g data-v-423bf9ae="" id="f1bf962f-932b-4f4c-85c4-162589ace60e" transform="matrix(1.1111111958821616,0,0,1.1111111958821616,0.44444020589192235,0.4444366031224405)" stroke="none" fill="url(#5176cab1-91e0-4e0a-910c-f61e8a5f3d0d)"><path d="M74.988 37.5c0 13.807-11.182 25-24.988 25C50 55.604 44.396 50 37.5 50H24.988C12.5 50 0 42.969 0 25 0 6.641 12.5 0 24.988 0H50c12.5 0 24.988 7.745 24.988 25v12.5z"></path><path d="M81.189 38.165C80.822 55.078 66.992 68.75 50 68.75h-6.25V62.5a6.259 6.259 0 0 0-6.25-6.25H25.623a31.336 31.336 0 0 0-.635 6.25V75c0 13.807 11.205 25 25.012 25 0-6.909 5.604-12.5 12.5-12.5h12.488C87.5 87.5 100 80.469 100 62.5c0-15.289-8.703-22.375-18.811-24.335z"></path></g><!----></svg>